# xmcd CD database file
#
# Track frame offsets:
#	150
#	13682
#	28611
#	41798
#	55134
#	69058
#	82517
#	97728
#	109544
#	123581
#	140976
#	155387
#
# Disc length: 2263 seconds
#
# Revision: 1
# Processed by: cddbd v1.4PL0 Copyright (c) Steve Scherf et al.
# Submitted via: CDex 1.40Beta4
#
DISCID=8d08d50c
DTITLE=John Hammond - Long As I Have You -3
DYEAR=1900
DGENRE=Blues
TTITLE0=Don't Start Me Talkin'
TTITLE1=As Long As I Have You
TTITLE2=I Feel So Sorry
TTITLE3=Stranded
TTITLE4=Lookin' For Trouble
TTITLE5=I Got Lucky
TTITLE6=Sad To Be Alone
TTITLE7=Goin' Away Baby
TTITLE8=So Many Roads, So Many Trains
TTITLE9=I'm Gonna Find My Baby
TTITLE10=Crying At Daylight
TTITLE11=Everything's Gonna Be Alright
EXTD=ID3G:   0
EXTT0=
EXTT1=
EXTT2=
EXTT3=
EXTT4=
EXTT5=
EXTT6=
EXTT7=
EXTT8=
EXTT9=
EXTT10=
EXTT11=
PLAYORDER=
